<?xml version="1.0" encoding="utf-8"?>
<!-- Generator: Adobe Illustrator 18.1.0, SVG Export Plug-In . SVG Version: 6.00 Build 0)  -->
<!DOCTYPE svg PUBLIC "-//W3C//DTD SVG 1.1//EN" "http://www.w3.org/Graphics/SVG/1.1/DTD/svg11.dtd">
<svg version="1.1" xmlns="http://www.w3.org/2000/svg" xmlns:xlink="http://www.w3.org/1999/xlink" x="0px" y="0px"
	 viewBox="0 0 76.5 20.2" enable-background="new 0 0 76.5 20.2" xml:space="preserve">
<g id="Layer_1">
</g>
<g id="Layer_2">
	<rect x="30.7" y="15.4" fill="none" width="29.3" height="4.9"/>
	<text transform="matrix(1 0 0 1 30.7075 16.6995)"><tspan x="0" y="0" font-family="'Raleway-Bold'" font-size="1.8089">SPECTRA</tspan><tspan x="0" y="1.6" font-family="'Raleway-Bold'" font-size="1.7583">PAINTERS</tspan></text>
	<rect x="-159.3" y="-75.6" fill="none" width="128.4" height="21.3"/>
	<text transform="matrix(1 0 0 1 -159.3051 -69.8448)"><tspan x="0" y="0" font-family="'Raleway-Bold'" font-size="7.922">SPECTRA</tspan><tspan x="0" y="7" font-family="'Raleway-Bold'" font-size="7.7003">PAINTERS</tspan></text>
	<rect x="-346.4" y="77.8" fill="none" width="194.6" height="32.3"/>
	<text transform="matrix(1 0 0 1 -346.4355 86.5198)"><tspan x="0" y="0" font-family="'Raleway-Bold'" font-size="12">SPECTRA</tspan><tspan x="0" y="10.7" font-family="'Raleway-Bold'" font-size="11.6642">PAINTERS</tspan></text>
	<rect x="-21.6" y="-199.5" fill="none" width="319.3" height="32.3"/>
	<text transform="matrix(1 0 0 1 -21.5947 -179.052)" fill="#FFFFFF" font-family="'Raleway-Bold'" font-size="28">SPECTRA  PAINTERS</text>
	<polygon points="-231.2,-68.5 -316.4,-30.9 -281.1,-72.1 	"/>
	<polygon points="-348.6,-74.3 -341.2,-8.3 -319.9,-30.9 	"/>
	<polygon points="-349.8,-81.7 -290.7,-75.4 -285.5,-123.3 	"/>
	<polygon points="-269.9,-48.2 -260.9,-8.8 -228.4,-66.9 	"/>
	<polygon points="-340.8,-5.5 -317.7,-27.3 -275.4,-45.3 -336.6,38.8 	"/>
	<polygon fill="none" stroke="#000000" stroke-width="2" stroke-miterlimit="10" points="-256.7,38.8 -333.6,38.8 -301,-3.5 	"/>
	<polygon points="-350.2,-77.1 -366.9,-16.9 -348.6,-49.3 	"/>
	<polygon points="-282.1,-124.1 -234.1,-72.1 -243.5,-142.4 	"/>
	<polygon points="-252.6,38.8 -299.3,-7.1 -272.1,-44.5 	"/>
	<polygon points="-349.6,-79.5 -318.4,-33.7 -284.8,-72.1 	"/>
	<polygon points="-283.4,-122.1 -288,-75.4 -236,-70.7 	"/>
	<polygon points="-364.4,-16 -339.4,39.5 -347.2,-46.1 	"/>
	<polygon points="-385.7,39.2 -367.1,-14.9 -342.5,39.3 	"/>
	<polygon fill="#FFFFFF" points="-556.3,-60.9 -641.5,-23.3 -606.2,-64.5 	"/>
	<polygon fill="#FFFFFF" points="-673.7,-66.7 -666.3,-0.7 -645.1,-23.3 	"/>
	<polygon fill="#FFFFFF" points="-674.9,-74.1 -615.8,-67.8 -610.7,-115.7 	"/>
	<polygon fill="#FFFFFF" points="-595,-40.6 -586.1,-1.2 -553.5,-59.2 	"/>
	<polygon fill="#FFFFFF" points="-665.9,2.1 -642.8,-19.7 -600.5,-37.7 -661.7,46.4 	"/>
	<polygon fill="none" stroke="#FFFFFF" stroke-width="2" stroke-miterlimit="10" points="-581.8,46.4 -658.7,46.4 -626.1,4.1 	"/>
	<polygon fill="#FFFFFF" points="-675.3,-69.5 -692,-9.3 -673.7,-41.7 	"/>
	<polygon fill="#FFFFFF" points="-607.2,-116.5 -559.2,-64.5 -568.6,-134.8 	"/>
	<polygon fill="#FFFFFF" points="-577.7,46.4 -624.4,0.5 -597.2,-36.9 	"/>
	<polygon fill="#FFFFFF" points="-674.7,-71.9 -643.5,-26.1 -609.9,-64.5 	"/>
	<polygon fill="#FFFFFF" points="-608.5,-114.5 -613.2,-67.8 -561.2,-63.1 	"/>
	<polygon fill="#FFFFFF" points="-689.5,-8.3 -664.6,47.1 -672.3,-38.5 	"/>
	<polygon fill="#FFFFFF" points="-710.8,46.9 -692.2,-7.3 -667.6,46.9 	"/>
</g>
<g id="Layer_3">
	<polygon fill="#9C69AC" points="40,7.8 34.8,10.2 37,7.6 	"/>
	<polygon fill="#9C69AC" points="-118.4,-108.6 -141.4,-98.5 -131.8,-109.6 	"/>
</g>
<g id="Layer_4">
	<polygon fill="#BED751" points="32.8,7.5 33.3,11.5 34.6,10.2 	"/>
	<polygon fill="#BED751" points="-150,-110.2 -148.1,-92.4 -142.3,-98.5 	"/>
</g>
<g id="Layer_5">
	<polygon fill="#86D1D4" points="32.7,7 36.4,7.4 36.7,4.5 	"/>
	<polygon fill="#86D1D4" points="-150.4,-112.2 -134.4,-110.5 -133.1,-123.4 	"/>
</g>
<g id="Layer_6">
	<polygon fill="#AA7497" points="37.7,9.1 38.2,11.5 40.1,8 	"/>
	<polygon fill="#AA7497" points="-128.8,-103.2 -126.4,-92.6 -118.1,-108 	"/>
</g>
<g id="Layer_7">
	<polygon fill="#EF5DA2" points="33.3,11.7 34.7,10.4 37.3,9.3 33.5,14.4 	"/>
	<polygon fill="#EF5DA2" points="-147.9,-91.7 -141.7,-97.5 -130.3,-102.4 -147.1,-80 	"/>
</g>
<g id="Layer_8">
	<polygon fill="none" stroke="#000000" stroke-width="0.1507" stroke-miterlimit="10" points="38.5,14.4 33.7,14.4 35.7,11.8 	"/>
	<polygon fill="none" stroke="#000000" stroke-width="0.6602" stroke-miterlimit="10" points="-125.3,-79.7 -146,-79.7 
		-137.2,-91.1 	"/>
</g>
<g id="Layer_9">
	<polygon fill="#FAF17A" points="32.7,7.3 31.7,11 32.8,9 	"/>
	<polygon fill="#FAF17A" points="-150.5,-111 -155,-94.7 -150,-103.5 	"/>
</g>
<g id="Layer_10">
	<polygon fill="#5083C4" points="36.9,4.4 39.9,7.6 39.3,3.3 	"/>
	<polygon fill="#5083C4" points="-132.1,-123.6 -119.2,-109.6 -121.7,-128.6 	"/>
</g>
<g id="Layer_11">
	<polygon fill="#FCE6F0" points="38.7,14.4 35.9,11.6 37.5,9.3 	"/>
	<polygon fill="#FCE6F0" points="-124.2,-79.7 -136.8,-92.1 -129.4,-102.2 	"/>
</g>
<g id="Layer_12">
	<polygon fill="#9CB79C" points="32.8,7.2 34.7,10 36.7,7.6 	"/>
	<polygon fill="#9CB79C" points="-150.3,-111.6 -141.9,-99.3 -132.8,-109.6 	"/>
</g>
<g id="Layer_13">
	<polygon fill="#605CA8" points="36.8,4.5 36.5,7.4 39.7,7.7 	"/>
	<polygon fill="#605CA8" points="-132.5,-123.1 -133.7,-110.5 -119.7,-109.2 	"/>
</g>
<g id="Layer_14">
	<polygon fill="#FEBE2E" points="31.9,11.1 33.4,14.5 32.9,9.2 	"/>
	<polygon fill="#FEBE2E" points="-154.3,-94.5 -147.6,-79.5 -149.7,-102.6 	"/>
</g>
<g id="Layer_15">
	<polygon fill="#E0504C" points="30.5,14.5 31.7,11.1 33.2,14.5 	"/>
	<polygon fill="#E0504C" points="-160,-79.6 -155,-94.2 -148.4,-79.6 	"/>
</g>
</svg>
